<?xml version="1.0" standalone="no"?>
<!DOCTYPE svg PUBLIC "-//W3C//DTD SVG 20010904//EN"
 "http://www.w3.org/TR/2001/REC-SVG-20010904/DTD/svg10.dtd">
<svg version="1.0" xmlns="http://www.w3.org/2000/svg"
 width="500.000000pt" height="500.000000pt" viewBox="0 0 500.000000 500.000000"
 preserveAspectRatio="xMidYMid meet">

<g transform="translate(0.000000,500.000000) scale(0.100000,-0.100000)"
fill="#000000" stroke="none">
<path d="M2688 3580 c-74 -22 -127 -95 -128 -175 0 -28 10 -56 36 -97 25 -41
38 -78 46 -126 5 -37 14 -75 19 -84 13 -23 79 -42 122 -34 35 6 35 7 42 69 10
94 21 127 65 191 32 47 40 68 40 103 0 47 -15 87 -30 78 -4 -3 -3 -20 2 -39
14 -44 -5 -94 -38 -102 -32 -8 -45 3 -38 32 10 41 -18 71 -81 84 -91 19 -92
64 -2 97 l32 11 -30 0 c-16 0 -42 -3 -57 -8z"/>
<path d="M2710 2987 l0 -46 -52 -3 c-39 -2 -53 -7 -53 -18 0 -11 14 -16 53
-18 48 -3 53 -5 50 -25 -2 -17 -11 -23 -38 -25 -36 -4 -84 -38 -74 -53 3 -5
85 -9 183 -9 175 0 178 0 200 24 23 24 23 24 3 35 -12 6 -52 11 -90 11 -64 0
-70 -2 -81 -26 -23 -50 -36 -22 -39 84 -2 79 -6 102 -17 102 -7 0 -20 3 -29 6
-13 5 -16 -2 -16 -39z"/>
<path d="M2820 2920 c0 -19 7 -20 128 -20 120 -1 129 -2 155 -25 15 -13 27
-27 27 -30 0 -11 -201 -223 -219 -231 -9 -3 -112 -8 -230 -10 -118 -2 -216 -6
-218 -8 -3 -2 34 -58 81 -123 48 -65 113 -155 146 -201 33 -45 67 -85 75 -88
34 -13 66 11 167 128 59 68 150 172 202 232 53 59 99 120 103 134 4 19 -7 51
-46 129 -64 130 -70 133 -246 133 -118 0 -125 -1 -125 -20z"/>
<path d="M2488 2723 c-27 -14 -48 -30 -48 -35 0 -4 89 -8 198 -8 195 0 199 0
220 23 42 45 34 47 -150 47 -168 0 -174 -1 -220 -27z"/>
<path d="M3100 2081 c-11 -21 -14 -51 -4 -51 3 0 14 10 24 22 17 21 18 21 43
5 15 -9 35 -17 45 -17 20 0 52 29 52 48 0 18 -21 14 -36 -5 -12 -17 -14 -17
-42 0 -39 22 -69 22 -82 -2z"/>
<path d="M1814 2077 c-2 -7 -3 -80 -2 -162 3 -147 3 -150 26 -153 21 -3 22 0
22 62 l0 66 39 0 c43 0 53 -9 91 -79 27 -50 70 -70 70 -33 0 26 -49 112 -63
112 -7 0 0 8 15 17 63 39 62 134 -2 165 -43 22 -188 26 -196 5z m182 -62 c15
-23 15 -27 0 -50 -16 -25 -63 -40 -107 -33 -21 3 -24 9 -27 56 l-3 52 60 0
c54 0 62 -3 77 -25z"/>
<path d="M2120 2064 c0 -22 4 -25 28 -22 19 2 28 9 30 26 3 19 -1 22 -27 22
-27 0 -31 -4 -31 -26z"/>
<path d="M2244 2077 c-2 -7 -3 -80 -2 -162 3 -136 5 -150 21 -153 10 -2 24 4
31 13 11 15 13 15 25 1 15 -18 72 -21 102 -6 26 15 49 62 49 105 0 92 -81 146
-148 99 -22 -15 -22 -15 -22 35 0 27 -3 56 -6 65 -7 19 -43 21 -50 3z m149
-144 c25 -29 26 -93 1 -117 -39 -39 -94 -6 -94 57 0 67 55 102 93 60z"/>
<path d="M2774 2075 c-8 -21 4 -35 32 -35 19 0 24 5 24 25 0 20 -5 25 -25 25
-14 0 -28 -7 -31 -15z"/>
<path d="M2125 1968 c-3 -13 -5 -63 -3 -113 3 -79 5 -90 22 -93 10 -2 22 2 27
10 10 15 12 178 3 202 -9 24 -43 20 -49 -6z"/>
<path d="M2549 1962 c-26 -23 -33 -38 -37 -80 -4 -49 -2 -54 31 -87 30 -30 42
-35 80 -35 61 0 100 15 95 38 -2 9 -11 15 -19 13 -8 -3 -33 -6 -56 -9 -32 -3
-46 1 -62 17 -35 35 -26 41 59 41 l80 0 0 36 c0 85 -105 125 -171 66z m121
-31 c18 -35 12 -41 -44 -41 -62 0 -72 7 -50 38 20 29 79 30 94 3z"/>
<path d="M2781 1971 c-12 -21 -15 -151 -5 -189 5 -16 13 -22 28 -20 20 3 21 9
21 113 0 95 -2 110 -17 113 -9 2 -21 -6 -27 -17z"/>
<path d="M2894 1977 c-2 -7 -3 -58 -2 -113 3 -98 3 -99 28 -99 24 0 25 3 28
60 4 95 7 103 52 115 24 6 40 17 40 26 0 22 -28 28 -58 13 -15 -7 -30 -15 -34
-17 -5 -2 -8 3 -8 12 0 19 -38 22 -46 3z"/>
<path d="M3110 1981 c-27 -8 -37 -49 -10 -42 8 2 34 6 57 8 38 5 44 3 52 -18
12 -34 6 -39 -50 -39 -40 0 -55 -5 -75 -25 -60 -60 41 -140 114 -89 20 14 22
14 22 -1 0 -11 7 -15 23 -13 20 3 22 9 25 68 4 85 -11 138 -44 150 -28 11 -77
11 -114 1z m103 -142 c-9 -32 -47 -53 -72 -39 -20 10 -28 40 -14 53 3 4 25 7
49 7 38 0 42 -2 37 -21z"/>
<path d="M3361 1964 c-59 -53 -50 -163 15 -193 47 -21 101 -14 136 18 30 27
33 35 33 85 0 73 -30 107 -103 114 -43 4 -53 1 -81 -24z m111 -31 c23 -21 24
-89 1 -115 -32 -35 -92 -13 -94 35 -4 82 44 124 93 80z"/>
</g>
</svg>
